{
  "accessors": [
    {
      "bufferView": 2,
      "componentType": 5126,
      "count": 264,
      "max": [
        1.323895812034607,
        0.049675244837999344,
        0.04967525601387024
      ],
      "min": [
        -0.5673969984054565,
        -0.04967525601387024,
        -0.049675244837999344
      ],
      "type": "VEC3"
    },
    {
      "bufferView": 2,
      "byteOffset": 3168,
      "componentType": 5126,
      "count": 264,
      "max": [
        1.0,
        1.0,
        1.0
      ],
      "min": [
        -1.0,
        -1.0,
        -1.0
      ],
      "type": "VEC3"
    },
    {
      "bufferView": 3,
      "componentType": 5126,
      "count": 264,
      "max": [
        0.00023004438844509423,
        1.0,
        1.0,
        1.0
      ],
      "min": [
        -0.000256082508713007,
        -1.0,
        -1.0,
        1.0
      ],
      "type": "VEC4"
    },
    {
      "bufferView": 1,
      "componentType": 5126,
      "count": 264,
      "max": [
        0.9973393678665161,
        0.9896027445793152
      ],
      "min": [
        0.7079921364784241,
        0.000766608864068985
      ],
      "type": "VEC2"
    },
    {
      "bufferView": 1,
      "byteOffset": 2112,
      "componentType": 5126,
      "count": 264,
      "max": [
        0.9973393678665161,
        0.9896027445793152
      ],
      "min": [
        0.7079921364784241,
        0.000766608864068985
      ],
      "type": "VEC2"
    },
    {
      "bufferView": 1,
      "byteOffset": 4224,
      "componentType": 5126,
      "count": 264,
      "max": [
        0.9973393678665161,
        0.9896027445793152
      ],
      "min": [
        0.7079921364784241,
        0.000766608864068985
      ],
      "type": "VEC2"
    },
    {
      "bufferView": 0,
      "componentType": 5125,
      "count": 768,
      "type": "SCALAR"
    },
    {
      "bufferView": 2,
      "byteOffset": 6336,
      "componentType": 5126,
      "count": 404,
      "max": [
        -0.5975390672683716,
        0.05019555613398552,
        0.05019557103514671
      ],
      "min": [
        -0.643706738948822,
        -0.05019557103514671,
        -0.05019555613398552
      ],
      "type": "VEC3"
    },
    {
      "bufferView": 2,
      "byteOffset": 11184,
      "componentType": 5126,
      "count": 404,
      "max": [
        1.0,
        0.9914608597755432,
        0.9914609789848328
      ],
      "min": [
        -1.0,
        -0.9914609789848328,
        -0.9914609789848328
      ],
      "type": "VEC3"
    },
    {
      "bufferView": 3,
      "byteOffset": 4224,
      "componentType": 5126,
      "count": 404,
      "max": [
        0.991460919380188,
        0.9999423027038574,
        0.9999368190765381,
        1.0
      ],
      "min": [
        -0.82746422290802,
        -0.9954866170883179,
        -0.9999423027038574,
        1.0
      ],
      "type": "VEC4"
    },
    {
      "bufferView": 1,
      "byteOffset": 6336,
      "componentType": 5126,
      "count": 404,
      "max": [
        0.7000401616096497,
        0.670407772064209
      ],
      "min": [
        0.18014776706695557,
        0.006221003830432892
      ],
      "type": "VEC2"
    },
    {
      "bufferView": 1,
      "byteOffset": 9568,
      "componentType": 5126,
      "count": 404,
      "max": [
        0.7000401616096497,
        0.670407772064209
      ],
      "min": [
        0.18014776706695557,
        0.006221003830432892
      ],
      "type": "VEC2"
    },
    {
      "bufferView": 1,
      "byteOffset": 12800,
      "componentType": 5126,
      "count": 404,
      "max": [
        0.7000401616096497,
        0.670407772064209
      ],
      "min": [
        0.18014776706695557,
        0.006221003830432892
      ],
      "type": "VEC2"
    },
    {
      "bufferView": 0,
      "byteOffset": 3072,
      "componentType": 5125,
      "count": 1776,
      "type": "SCALAR"
    },
    {
      "bufferView": 2,
      "byteOffset": 16032,
      "componentType": 5126,
      "count": 462,
      "max": [
        0.09725184738636017,
        0.057282764464616776,
        0.05728277564048767
      ],
      "min": [
        -0.6338070034980774,
        -0.057282544672489166,
        -0.057282764464616776
      ],
      "type": "VEC3"
    },
    {
      "bufferView": 2,
      "byteOffset": 21576,
      "componentType": 5126,
      "count": 462,
      "max": [
        1.0,
        1.0,
        1.0
      ],
      "min": [
        -1.0,
        -1.0,
        -1.0
      ],
      "type": "VEC3"
    },
    {
      "bufferView": 3,
      "byteOffset": 10688,
      "componentType": 5126,
      "count": 462,
      "max": [
        0.010436898097395897,
        1.0,
        1.0,
        1.0
      ],
      "min": [
        -0.01721625216305256,
        -1.0,
        -1.0,
        1.0
      ],
      "type": "VEC4"
    },
    {
      "bufferView": 1,
      "byteOffset": 16032,
      "componentType": 5126,
      "count": 462,
      "max": [
        0.9097338318824768,
        0.9898773431777954
      ],
      "min": [
        0.45503127574920654,
        0.00030141626484692097
      ],
      "type": "VEC2"
    },
    {
      "bufferView": 1,
      "byteOffset": 19728,
      "componentType": 5126,
      "count": 462,
      "max": [
        0.9097338318824768,
        0.9898773431777954
      ],
      "min": [
        0.45503127574920654,
        0.00030141626484692097
      ],
      "type": "VEC2"
    },
    {
      "bufferView": 1,
      "byteOffset": 23424,
      "componentType": 5126,
      "count": 462,
      "max": [
        0.9097338318824768,
        0.9898773431777954
      ],
      "min": [
        0.45503127574920654,
        0.00030141626484692097
      ],
      "type": "VEC2"
    },
    {
      "bufferView": 0,
      "byteOffset": 10176,
      "componentType": 5125,
      "count": 1920,
      "type": "SCALAR"
    },
    {
      "bufferView": 2,
      "byteOffset": 27120,
      "componentType": 5126,
      "count": 832,
      "max": [
        0.16995348036289215,
        0.053111668676137924,
        0.1697138100862503
      ],
      "min": [
        -1.8446986675262451,
        -0.053111668676137924,
        -0.3229367434978485
      ],
      "type": "VEC3"
    },
    {
      "bufferView": 2,
      "byteOffset": 37104,
      "componentType": 5126,
      "count": 832,
      "max": [
        1.0,
        1.0,
        1.0
      ],
      "min": [
        -0.9989484548568726,
        -1.0,
        -0.9999807476997375
      ],
      "type": "VEC3"
    },
    {
      "bufferView": 3,
      "byteOffset": 18080,
      "componentType": 5126,
      "count": 832,
      "max": [
        0.5436914563179016,
        1.0,
        0.07781768590211868,
        1.0
      ],
      "min": [
        -1.0,
        -0.9999997019767761,
        -0.9988703727722168,
        1.0
      ],
      "type": "VEC4"
    },
    {
      "bufferView": 1,
      "byteOffset": 27120,
      "componentType": 5126,
      "count": 832,
      "max": [
        0.9931910037994385,
        0.9962921738624573
      ],
      "min": [
        0.0003069986414629966,
        0.0003069986414629966
      ],
      "type": "VEC2"
    },
    {
      "bufferView": 1,
      "byteOffset": 33776,
      "componentType": 5126,
      "count": 832,
      "max": [
        0.9931910037994385,
        0.9962921738624573
      ],
      "min": [
        0.0003069986414629966,
        0.0003069986414629966
      ],
      "type": "VEC2"
    },
    {
      "bufferView": 1,
      "byteOffset": 40432,
      "componentType": 5126,
      "count": 832,
      "max": [
        0.9931910037994385,
        0.9962921738624573
      ],
      "min": [
        0.0003069986414629966,
        0.0003069986414629966
      ],
      "type": "VEC2"
    },
    {
      "bufferView": 0,
      "byteOffset": 17856,
      "componentType": 5125,
      "count": 4272,
      "type": "SCALAR"
    },
    {
      "bufferView": 2,
      "byteOffset": 47088,
      "componentType": 5126,
      "count": 2028,
      "max": [
        -0.05496762692928314,
        0.06581401824951172,
        0.06581425666809082
      ],
      "min": [
        -0.5949241518974304,
        -0.11270777136087418,
        -0.1732213795185089
      ],
      "type": "VEC3"
    },
    {
      "bufferView": 2,
      "byteOffset": 71424,
      "componentType": 5126,
      "count": 2028,
      "max": [
        0.999762237071991,
        0.9981682300567627,
        0.9995887875556946
      ],
      "min": [
        -0.9998157620429993,
        -0.9988305568695068,
        -0.9994693398475647
      ],
      "type": "VEC3"
    },
    {
      "bufferView": 3,
      "byteOffset": 31392,
      "componentType": 5126,
      "count": 2028,
      "max": [
        0.9999787211418152,
        0.9992793798446655,
        0.9999474287033081,
        1.0
      ],
      "min": [
        -0.9999790191650391,
        -0.9999675154685974,
        -0.9999533891677856,
        1.0
      ],
      "type": "VEC4"
    },
    {
      "bufferView": 1,
      "byteOffset": 47088,
      "componentType": 5126,
      "count": 2028,
      "max": [
        0.42491650581359863,
        0.9869526624679565
      ],
      "min": [
        0.16900880634784698,
        0.001233130693435669
      ],
      "type": "VEC2"
    },
    {
      "bufferView": 1,
      "byteOffset": 63312,
      "componentType": 5126,
      "count": 2028,
      "max": [
        0.42491650581359863,
        0.9869526624679565
      ],
      "min": [
        0.16900880634784698,
        0.001233130693435669
      ],
      "type": "VEC2"
    },
    {
      "bufferView": 1,
      "byteOffset": 79536,
      "componentType": 5126,
      "count": 2028,
      "max": [
        0.42491650581359863,
        0.9869526624679565
      ],
      "min": [
        0.16900880634784698,
        0.001233130693435669
      ],
      "type": "VEC2"
    },
    {
      "bufferView": 0,
      "byteOffset": 34944,
      "componentType": 5125,
      "count": 10944,
      "type": "SCALAR"
    },
    {
      "bufferView": 2,
      "byteOffset": 95760,
      "componentType": 5126,
      "count": 678,
      "max": [
        0.11025573313236237,
        0.02534952200949192,
        0.009586808271706104
      ],
      "min": [
        -0.11025573313236237,
        -0.025640953332185745,
        -0.21933123469352722
      ],
      "type": "VEC3"
    },
    {
      "bufferView": 2,
      "byteOffset": 103896,
      "componentType": 5126,
      "count": 678,
      "max": [
        1.0,
        0.9823863506317139,
        1.0
      ],
      "min": [
        -1.0,
        -0.9823864698410034,
        -1.0
      ],
      "type": "VEC3"
    },
    {
      "bufferView": 3,
      "byteOffset": 63840,
      "componentType": 5126,
      "count": 678,
      "max": [
        1.0,
        1.0,
        0.9996342062950134,
        1.0
      ],
      "min": [
        -1.0,
        -1.0,
        -0.9996012449264526,
        1.0
      ],
      "type": "VEC4"
    },
    {
      "bufferView": 1,
      "byteOffset": 95760,
      "componentType": 5126,
      "count": 678,
      "max": [
        0.9981509447097778,
        0.9982640147209167
      ],
      "min": [
        0.030682310461997986,
        0.0010948991402983665
      ],
      "type": "VEC2"
    },
    {
      "bufferView": 1,
      "byteOffset": 101184,
      "componentType": 5126,
      "count": 678,
      "max": [
        0.9981509447097778,
        0.9982640147209167
      ],
      "min": [
        0.030682310461997986,
        0.0010948991402983665
      ],
      "type": "VEC2"
    },
    {
      "bufferView": 1,
      "byteOffset": 106608,
      "componentType": 5126,
      "count": 678,
      "max": [
        0.9981509447097778,
        0.9982640147209167
      ],
      "min": [
        0.030682310461997986,
        0.0010948991402983665
      ],
      "type": "VEC2"
    },
    {
      "bufferView": 0,
      "byteOffset": 78720,
      "componentType": 5125,
      "count": 2808,
      "type": "SCALAR"
    },
    {
      "bufferView": 2,
      "byteOffset": 112032,
      "componentType": 5126,
      "count": 1232,
      "max": [
        0.22370752692222595,
        0.025720417499542236,
        -0.008910936303436756
      ],
      "min": [
        0.008251149207353592,
        -0.0257275328040123,
        -0.015775412321090698
      ],
      "type": "VEC3"
    },
    {
      "bufferView": 2,
      "byteOffset": 126816,
      "componentType": 5126,
      "count": 1232,
      "max": [
        0.9998378157615662,
        1.0,
        1.0
      ],
      "min": [
        -1.0,
        -1.0,
        -0.9987888932228088
      ],
      "type": "VEC3"
    },
    {
      "bufferView": 3,
      "byteOffset": 74688,
      "componentType": 5126,
      "count": 1232,
      "max": [
        0.6835931539535522,
        0.999957263469696,
        0.9999356865882874,
        1.0
      ],
      "min": [
        -0.6540791988372803,
        -0.9999968409538269,
        -0.9999959468841553,
        -1.0
      ],
      "type": "VEC4"
    },
    {
      "bufferView": 1,
      "byteOffset": 112032,
      "componentType": 5126,
      "count": 1232,
      "max": [
        0.7029710412025452,
        0.9552227854728699
      ],
      "min": [
        0.6110429763793945,
        0.7393575310707092
      ],
      "type": "VEC2"
    },
    {
      "bufferView": 1,
      "byteOffset": 121888,
      "componentType": 5126,
      "count": 1232,
      "max": [
        0.7029710412025452,
        0.9552227854728699
      ],
      "min": [
        0.6110429763793945,
        0.7393575310707092
      ],
      "type": "VEC2"
    },
    {
      "bufferView": 1,
      "byteOffset": 131744,
      "componentType": 5126,
      "count": 1232,
      "max": [
        0.7029710412025452,
        0.9552227854728699
      ],
      "min": [
        0.6110429763793945,
        0.7393575310707092
      ],
      "type": "VEC2"
    },
    {
      "bufferView": 0,
      "byteOffset": 89952,
      "componentType": 5125,
      "count": 6144,
      "type": "SCALAR"
    },
    {
      "bufferView": 2,
      "byteOffset": 141600,
      "componentType": 5126,
      "count": 238,
      "max": [
        -0.3097328245639801,
        0.0498100221157074,
        0.04981003701686859
      ],
      "min": [
        -0.5938373804092407,
        -0.04981003701686859,
        -0.0498100221157074
      ],
      "type": "VEC3"
    },
    {
      "bufferView": 2,
      "byteOffset": 144456,
      "componentType": 5126,
      "count": 238,
      "max": [
        1.0,
        1.0,
        1.0
      ],
      "min": [
        -1.0,
        -1.0,
        -1.0
      ],
      "type": "VEC3"
    },
    {
      "bufferView": 1,
      "byteOffset": 141600,
      "componentType": 5126,
      "count": 238,
      "max": [
        0.9901760816574097,
        0.9965665340423584
      ],
      "min": [
        0.00017186767945531756,
        0.00017186767945531756
      ],
      "type": "VEC2"
    },
    {
      "bufferView": 1,
      "byteOffset": 143504,
      "componentType": 5126,
      "count": 238,
      "max": [
        0.9901760816574097,
        0.9965665340423584
      ],
      "min": [
        0.00017186767945531756,
        0.00017186767945531756
      ],
      "type": "VEC2"
    },
    {
      "bufferView": 1,
      "byteOffset": 145408,
      "componentType": 5126,
      "count": 238,
      "max": [
        0.9901760816574097,
        0.9965665340423584
      ],
      "min": [
        0.00017186767945531756,
        0.00017186767945531756
      ],
      "type": "VEC2"
    },
    {
      "bufferView": 0,
      "byteOffset": 114528,
      "componentType": 5125,
      "count": 672,
      "type": "SCALAR"
    }
  ],
  "asset": {
    "extras": {
      "author": "Nollien (https://sketchfab.com/Nollien)",
      "license": "CC-BY-4.0 (http://creativecommons.org/licenses/by/4.0/)",
      "source": "https://sketchfab.com/3d-models/richardson-model-r-5-slam-fire-shotgun-low-poly-18c60834719843948c5c26e82b4965b7",
      "title": "Richardson Model R-5 Slam Fire Shotgun Low Poly"
    },
    "generator": "Sketchfab-12.68.0",
    "version": "2.0"
  },
  "bufferViews": [
    {
      "buffer": 0,
      "byteLength": 117216,
      "name": "floatBufferViews",
      "target": 34963
    },
    {
      "buffer": 0,
      "byteLength": 147312,
      "byteOffset": 117216,
      "byteStride": 8,
      "name": "floatBufferViews",
      "target": 34962
    },
    {
      "buffer": 0,
      "byteLength": 147312,
      "byteOffset": 264528,
      "byteStride": 12,
      "name": "floatBufferViews",
      "target": 34962
    },
    {
      "buffer": 0,
      "byteLength": 94400,
      "byteOffset": 411840,
      "byteStride": 16,
      "name": "floatBufferViews",
      "target": 34962
    }
  ],
  "buffers": [
    {
      "byteLength": 506240,
      "uri": "scene.bin"
    }
  ],
  "images": [
    {
      "uri": "textures/material_baseColor.png"
    },
    {
      "uri": "textures/material_metallicRoughness.png"
    },
    {
      "uri": "textures/material_normal.png"
    }
  ],
  "materials": [
    {
      "name": "material",
      "normalTexture": {
        "index": 2
      },
      "pbrMetallicRoughness": {
        "baseColorTexture": {
          "index": 0
        },
        "metallicRoughnessTexture": {
          "index": 1
        }
      }
    },
    {
      "doubleSided": true,
      "name": "gauge",
      "pbrMetallicRoughness": {
        "baseColorFactor": [
          0.8,
          0.8,
          0.8,
          1.0
        ],
        "metallicFactor": 0.0,
        "roughnessFactor": 0.8211145618000169
      }
    }
  ],
  "meshes": [
    {
      "name": "reloadbarrel_low_R5_0",
      "primitives": [
        {
          "attributes": {
            "NORMAL": 1,
            "POSITION": 0,
            "TANGENT": 2,
            "TEXCOORD_0": 3,
            "TEXCOORD_1": 4,
            "TEXCOORD_2": 5
          },
          "indices": 6,
          "material": 0,
          "mode": 4
        }
      ]
    },
    {
      "name": "bolt_low_R5_0",
      "primitives": [
        {
          "attributes": {
            "NORMAL": 8,
            "POSITION": 7,
            "TANGENT": 9,
            "TEXCOORD_0": 10,
            "TEXCOORD_1": 11,
            "TEXCOORD_2": 12
          },
          "indices": 13,
          "material": 0,
          "mode": 4
        }
      ]
    },
    {
      "name": "barrel_low_R5_0",
      "primitives": [
        {
          "attributes": {
            "NORMAL": 15,
            "POSITION": 14,
            "TANGENT": 16,
            "TEXCOORD_0": 17,
            "TEXCOORD_1": 18,
            "TEXCOORD_2": 19
          },
          "indices": 20,
          "material": 0,
          "mode": 4
        }
      ]
    },
    {
      "name": "wood_low_R5_0",
      "primitives": [
        {
          "attributes": {
            "NORMAL": 22,
            "POSITION": 21,
            "TANGENT": 23,
            "TEXCOORD_0": 24,
            "TEXCOORD_1": 25,
            "TEXCOORD_2": 26
          },
          "indices": 27,
          "material": 0,
          "mode": 4
        }
      ]
    },
    {
      "name": "wire_low_R5_0",
      "primitives": [
        {
          "attributes": {
            "NORMAL": 29,
            "POSITION": 28,
            "TANGENT": 30,
            "TEXCOORD_0": 31,
            "TEXCOORD_1": 32,
            "TEXCOORD_2": 33
          },
          "indices": 34,
          "material": 0,
          "mode": 4
        }
      ]
    },
    {
      "name": "grip_low_R5_0",
      "primitives": [
        {
          "attributes": {
            "NORMAL": 36,
            "POSITION": 35,
            "TANGENT": 37,
            "TEXCOORD_0": 38,
            "TEXCOORD_1": 39,
            "TEXCOORD_2": 40
          },
          "indices": 41,
          "material": 0,
          "mode": 4
        }
      ]
    },
    {
      "name": "Cylinder_low_R5_0",
      "primitives": [
        {
          "attributes": {
            "NORMAL": 43,
            "POSITION": 42,
            "TANGENT": 44,
            "TEXCOORD_0": 45,
            "TEXCOORD_1": 46,
            "TEXCOORD_2": 47
          },
          "indices": 48,
          "material": 0,
          "mode": 4
        }
      ]
    },
    {
      "name": "gauge_low_gauge_0",
      "primitives": [
        {
          "attributes": {
            "NORMAL": 50,
            "POSITION": 49,
            "TEXCOORD_0": 51,
            "TEXCOORD_1": 52,
            "TEXCOORD_2": 53
          },
          "indices": 54,
          "material": 1,
          "mode": 4
        }
      ]
    }
  ],
  "nodes": [
    {
      "children": [
        1
      ],
      "matrix": [
        1.0,
        0.0,
        0.0,
        0.0,
        0.0,
        2.220446049250313e-16,
        -1.0,
        0.0,
        0.0,
        1.0,
        2.220446049250313e-16,
        0.0,
        0.0,
        0.0,
        0.0,
        1.0
      ],
      "name": "Sketchfab_model"
    },
    {
      "children": [
        2
      ],
      "matrix": [
        0.009999999776482582,
        0.0,
        0.0,
        0.0,
        0.0,
        0.0,
        0.009999999776482582,
        0.0,
        0.0,
        -0.009999999776482582,
        0.0,
        0.0,
        0.0,
        0.0,
        0.0,
        1.0
      ],
      "name": "b9c1f2587ffc45bebe99704da7679d6d.fbx"
    },
    {
      "children": [
        3,
        5,
        7,
        9,
        11,
        13,
        15,
        17
      ],
      "name": "RootNode"
    },
    {
      "children": [
        4
      ],
      "matrix": [
        100.0,
        0.0,
        0.0,
        0.0,
        0.0,
        -1.629206793918314e-05,
        -99.99999999999868,
        0.0,
        0.0,
        99.99999999999868,
        -1.629206793918314e-05,
        0.0,
        2.7652323246002197,
        0.0,
        0.0,
        1.0
      ],
      "name": "reloadbarrel_low"
    },
    {
      "mesh": 0,
      "name": "reloadbarrel_low_R5_0"
    },
    {
      "children": [
        6
      ],
      "matrix": [
        100.0,
        0.0,
        0.0,
        0.0,
        0.0,
        -1.629206793918314e-05,
        -99.99999999999868,
        0.0,
        0.0,
        99.99999999999868,
        -1.629206793918314e-05,
        0.0,
        0.0,
        0.0,
        0.0,
        1.0
      ],
      "name": "bolt_low"
    },
    {
      "mesh": 1,
      "name": "bolt_low_R5_0"
    },
    {
      "children": [
        8
      ],
      "matrix": [
        100.0,
        0.0,
        0.0,
        0.0,
        0.0,
        -1.629206793918314e-05,
        -99.99999999999868,
        0.0,
        0.0,
        99.99999999999868,
        -1.629206793918314e-05,
        0.0,
        0.0,
        0.0,
        0.0,
        1.0
      ],
      "name": "barrel_low"
    },
    {
      "mesh": 2,
      "name": "barrel_low_R5_0"
    },
    {
      "children": [
        10
      ],
      "matrix": [
        100.0,
        0.0,
        0.0,
        0.0,
        -0.0,
        -1.629206793918314e-05,
        -99.99999999999868,
        0.0,
        0.0,
        99.99999999999868,
        -1.629206793918314e-05,
        0.0,
        -6.764820098876953,
        -11.83499813079834,
        -1.6714043340471108e-06,
        1.0
      ],
      "name": "wood_low"
    },
    {
      "mesh": 3,
      "name": "wood_low_R5_0"
    },
    {
      "children": [
        12
      ],
      "matrix": [
        100.0,
        0.0,
        0.0,
        0.0,
        0.0,
        -1.629206793918314e-05,
        -99.99999999999868,
        0.0,
        0.0,
        99.99999999999868,
        -1.629206793918314e-05,
        0.0,
        0.0,
        0.0,
        0.0,
        1.0
      ],
      "name": "wire_low"
    },
    {
      "mesh": 4,
      "name": "wire_low_R5_0"
    },
    {
      "children": [
        14
      ],
      "matrix": [
        100.0,
        0.0,
        0.0,
        0.0,
        0.0,
        -1.629206793918314e-05,
        -99.99999999999868,
        0.0,
        0.0,
        99.99999999999868,
        -1.629206793918314e-05,
        0.0,
        44.49943923950195,
        -5.3564605712890625,
        0.0,
        1.0
      ],
      "name": "grip_low"
    },
    {
      "mesh": 5,
      "name": "grip_low_R5_0"
    },
    {
      "children": [
        16
      ],
      "matrix": [
        100.0,
        0.0,
        0.0,
        0.0,
        0.0,
        -1.629206793918314e-05,
        -99.99999999999868,
        0.0,
        0.0,
        99.99999999999868,
        -1.629206793918314e-05,
        0.0,
        32.962684631347656,
        -3.191490411758423,
        0.0,
        1.0
      ],
      "name": "Cylinder_low"
    },
    {
      "mesh": 6,
      "name": "Cylinder_low_R5_0"
    },
    {
      "children": [
        18
      ],
      "matrix": [
        100.0,
        0.0,
        0.0,
        0.0,
        0.0,
        -1.629206793918314e-05,
        -99.99999999999868,
        0.0,
        0.0,
        99.99999999999868,
        -1.629206793918314e-05,
        0.0,
        4.636383056640625,
        0.0,
        0.0,
        1.0
      ],
      "name": "gauge_low"
    },
    {
      "mesh": 7,
      "name": "gauge_low_gauge_0"
    }
  ],
  "samplers": [
    {
      "magFilter": 9729,
      "minFilter": 9987,
      "wrapS": 10497,
      "wrapT": 10497
    }
  ],
  "scene": 0,
  "scenes": [
    {
      "name": "Sketchfab_Scene",
      "nodes": [
        0
      ]
    }
  ],
  "textures": [
    {
      "sampler": 0,
      "source": 0
    },
    {
      "sampler": 0,
      "source": 1
    },
    {
      "sampler": 0,
      "source": 2
    }
  ]
}
